<svg aria-hidden="true" style="position: absolute; width: 0; height: 0; overflow: hidden;" version="1.1" xmlns="http://www.w3.org/2000/svg" xmlns:xlink="http://www.w3.org/1999/xlink">
<defs>
<symbol id="icon-doctor" viewBox="0 0 32 32">
<path stroke-linejoin="round" stroke-linecap="round" stroke-miterlimit="10" stroke-width="1.2592" d="M13.811 13.347c0.031 0.213 0.047 0.434 0.047 0.658 0 1.88-1.094 3.405-2.442 3.405s-2.44-1.525-2.44-3.405c0-0.272 0.022-0.538 0.066-0.792 0.733 0.441 1.59 0.695 2.504 0.695v0c0.815-0 1.587-0.203 2.265-0.562v0z"></path>
<path stroke-linejoin="round" stroke-linecap="round" stroke-miterlimit="10" stroke-width="1.2592" d="M23.365 18.952c1.238 0 2.249-1.010 2.249-2.249s-1.010-2.249-2.249-2.249-2.247 1.010-2.247 2.249c0 1.238 1.009 2.249 2.247 2.249v0z"></path>
<path stroke-linejoin="round" stroke-linecap="round" stroke-miterlimit="10" stroke-width="1.2592" d="M16.427 3.697v5.329c0 2.687-2.196 4.883-4.881 4.883v0c-2.687 0-4.883-2.196-4.883-4.883v-5.329"></path>
<path stroke-linejoin="round" stroke-linecap="round" stroke-miterlimit="10" stroke-width="1.2592" d="M6.663 3.697c0.779 0 1.414-0.635 1.414-1.414s-0.635-1.413-1.414-1.413c-0.779 0-1.413 0.635-1.413 1.413s0.635 1.414 1.413 1.414v0z"></path>
<path stroke-linejoin="round" stroke-linecap="round" stroke-miterlimit="10" stroke-width="1.2592" d="M16.427 3.791c0.779 0 1.413-0.635 1.413-1.414s-0.635-1.413-1.413-1.413c-0.777 0-1.412 0.635-1.412 1.413s0.635 1.414 1.412 1.414v0z"></path>
<path stroke-linejoin="round" stroke-linecap="round" stroke-miterlimit="10" stroke-width="1.2592" d="M23.365 19.178v5.846c0 3.321-2.718 6.039-6.037 6.039v0c-3.321 0-6.039-2.718-6.039-6.039v-7.646"></path>
<path stroke-linejoin="round" stroke-linecap="round" stroke-miterlimit="10" stroke-width="1.2592" d="M23.365 16.703v-0.015"></path>
</symbol>
<symbol id="icon-injection" viewBox="0 0 32 32">
<path fill="#fff" style="fill: var(--color1, #fff)" d="M22.006 8.931l-0.231-0.231c-0.212-0.213-0.212-0.55-0.006-0.763l0.188-0.188c0.212-0.213 0.55-0.213 0.762-0.006l0.231 0.231c0.212 0.213 0.212 0.55 0.006 0.762l-0.188 0.188c-0.212 0.213-0.55 0.213-0.762 0.006z"></path>
<path fill="#000" style="fill: var(--color2, #000)" d="M22.337 7.119c0.269 0 0.519 0.106 0.706 0.294l0.231 0.231c0.394 0.394 0.4 1.031 0.006 1.425l-0.188 0.188c-0.188 0.194-0.444 0.3-0.712 0.3s-0.525-0.1-0.712-0.294v0l-0.231-0.231c-0.394-0.394-0.4-1.031-0.006-1.425l0.188-0.188c0.188-0.194 0.444-0.3 0.719-0.3-0.006 0-0.006 0 0 0zM22.381 8.619c0.012 0 0.031-0.006 0.050-0.019l0.188-0.188c0.019-0.019 0.019-0.037 0.019-0.050s-0.006-0.031-0.019-0.050l-0.231-0.231c-0.019-0.019-0.038-0.025-0.050-0.019-0.012 0-0.031 0.006-0.050 0.019l-0.188 0.188c-0.025 0.031-0.025 0.075 0 0.1l0.231 0.231c0.019 0.012 0.038 0.019 0.050 0.019z"></path>
<path fill="#000" style="fill: var(--color2, #000)" d="M8.544 19.837c0.256 0 0.488 0.1 0.662 0.275l1.469 1.45c0.369 0.369 0.375 0.975 0.006 1.344l-3.856 3.919c-0.175 0.181-0.419 0.281-0.669 0.281h-0.006c-0.256 0-0.487-0.1-0.662-0.275l-1.469-1.45c-0.369-0.369-0.375-0.975-0.006-1.344l3.869-3.919c0.169-0.181 0.406-0.281 0.662-0.281v0zM6.15 26.225c0.013 0 0.031-0.006 0.050-0.019l3.869-3.919c0.025-0.031 0.025-0.069 0-0.094l-1.469-1.45c-0.019-0.019-0.037-0.019-0.050-0.019s-0.031 0.006-0.050 0.019l-3.869 3.919c-0.025 0.031-0.025 0.069 0 0.094l1.469 1.45c0.013 0.012 0.037 0.019 0.050 0.019z"></path>
<path fill="#000" style="fill: var(--color2, #000)" d="M7.631 16.531c0.263 0 0.512 0.1 0.694 0.281l2.838 2.8c0.181 0.181 0.188 0.481 0.006 0.663s-0.481 0.188-0.662 0.006l-2.838-2.8c-0.013-0.012-0.031-0.012-0.044-0.012-0.031 0-0.063 0.019-0.088 0.044l-0.394 0.394c-0.050 0.050-0.050 0.113-0.031 0.131l5.669 5.6c0.019 0.019 0.081 0.019 0.131-0.031l0.394-0.394c0.050-0.050 0.050-0.113 0.031-0.131l-1.606-1.581c-0.181-0.181-0.188-0.481-0.006-0.663s0.481-0.188 0.662-0.006l1.606 1.581c0.394 0.394 0.387 1.044-0.019 1.456l-0.394 0.394c-0.406 0.413-1.063 0.431-1.456 0.038l-5.669-5.6c-0.394-0.394-0.388-1.044 0.019-1.456l0.394-0.394c0.194-0.194 0.444-0.306 0.713-0.319 0.019 0.006 0.031 0 0.050 0z"></path>
<path fill="#fff" style="fill: var(--color1, #fff)" d="M6.463 28.194c-0.263 0.262-0.644 0.306-0.856 0.094l-1.188-1.175-0.594-0.581-1.275-1.256c-0.212-0.212-0.175-0.594 0.087-0.856v0c0.263-0.262 0.644-0.306 0.856-0.094l3.056 3.019c0.213 0.206 0.175 0.587-0.088 0.85v0z"></path>
<path fill="#000" style="fill: var(--color2, #000)" d="M3.15 23.719c0.256 0 0.5 0.094 0.675 0.269l3.050 3.019c0.2 0.2 0.3 0.488 0.269 0.788-0.025 0.269-0.15 0.525-0.35 0.731s-0.456 0.331-0.725 0.363c-0.3 0.031-0.588-0.063-0.794-0.262l-3.056-3.019c-0.394-0.394-0.356-1.075 0.081-1.519 0.2-0.206 0.456-0.331 0.725-0.363 0.050-0.006 0.087-0.006 0.125-0.006zM5.938 27.95c0.025 0.006 0.112 0 0.194-0.087 0.088-0.087 0.094-0.175 0.088-0.194l-3.050-3.012c-0.025-0.006-0.106 0-0.194 0.087s-0.094 0.175-0.087 0.194zM5.931 27.95v0 0z"></path>
<path fill="#fff" style="fill: var(--color1, #fff)" d="M21.1 10.519l-0.962-0.95c-0.212-0.213-0.212-0.55-0.006-0.762l0.481-0.488c0.212-0.213 0.55-0.213 0.762-0.006l0.962 0.95c0.212 0.213 0.212 0.55 0.006 0.762l-0.481 0.488c-0.206 0.213-0.55 0.219-0.762 0.006z"></path>
<path fill="#000" style="fill: var(--color2, #000)" d="M21 7.688c0.269 0 0.519 0.106 0.706 0.294l0.962 0.95c0.394 0.394 0.4 1.031 0.006 1.425l-0.481 0.488c-0.394 0.394-1.031 0.4-1.425 0.006v0l-0.962-0.95c-0.194-0.188-0.3-0.444-0.3-0.713s0.1-0.525 0.294-0.713l0.481-0.487c0.188-0.194 0.444-0.3 0.719-0.3-0.006 0 0 0 0 0zM21.481 10.206c0.019 0 0.038-0.006 0.050-0.019l0.481-0.488c0.025-0.031 0.025-0.075 0-0.1l-0.962-0.95c-0.019-0.019-0.038-0.019-0.050-0.019s-0.031 0.006-0.050 0.019l-0.481 0.488c-0.019 0.019-0.019 0.037-0.019 0.050s0.006 0.031 0.019 0.050l0.962 0.95c0.012 0.012 0.031 0.019 0.050 0.019z"></path>
<path fill="#000" style="fill: var(--color2, #000)" d="M27.962 2.194c0.119 0 0.238 0.044 0.331 0.138 0.181 0.181 0.188 0.481 0.006 0.663l-5.088 5.144c-0.181 0.181-0.481 0.188-0.663 0.006s-0.188-0.481-0.006-0.662l5.087-5.15c0.087-0.087 0.212-0.138 0.331-0.138z"></path>
<path fill="#000" style="fill: var(--color2, #000)" d="M18.219 10.137c0.119 0 0.238 0.044 0.331 0.137l1.313 1.313c0.181 0.181 0.181 0.481 0 0.662s-0.481 0.181-0.663 0l-1.313-1.313c-0.181-0.181-0.181-0.481 0-0.662 0.087-0.094 0.206-0.137 0.331-0.137z"></path>
<path fill="#000" style="fill: var(--color2, #000)" d="M16.925 11.431c0.119 0 0.238 0.044 0.331 0.137l1.313 1.313c0.181 0.181 0.181 0.481 0 0.662s-0.481 0.181-0.663 0l-1.313-1.313c-0.181-0.181-0.181-0.481 0-0.662 0.087-0.094 0.212-0.137 0.331-0.137z"></path>
<path fill="#000" style="fill: var(--color2, #000)" d="M15.488 12.869c0.119 0 0.238 0.044 0.331 0.137l1.313 1.313c0.181 0.181 0.181 0.481 0 0.662s-0.481 0.181-0.663 0l-1.313-1.313c-0.181-0.181-0.181-0.481 0-0.662 0.094-0.094 0.213-0.137 0.331-0.137z"></path>
<path fill="#000" style="fill: var(--color2, #000)" d="M14.194 14.156c0.119 0 0.238 0.044 0.331 0.137l1.313 1.313c0.181 0.181 0.181 0.481 0 0.663s-0.481 0.181-0.662 0l-1.313-1.313c-0.181-0.181-0.181-0.481 0-0.662 0.094-0.088 0.213-0.137 0.331-0.137z"></path>
<path fill="#000" style="fill: var(--color2, #000)" d="M8.762 17.5l0.681 0.669c-0.006-0.012-0.006-0.025-0.006-0.031 0-0.012 0-0.031 0.019-0.050l8.831-8.969c0.181-0.194 0.494-0.2 0.681-0.012l2.6 2.575c0.094 0.094 0.144 0.213 0.144 0.344s-0.050 0.25-0.144 0.344l-8.831 8.969c-0.012 0.012-0.031 0.019-0.050 0.019-0.006 0-0.019 0-0.025-0.006l0.675 0.663c0.012-0.012 0.031-0.025 0.044-0.044l8.831-8.969c0.262-0.269 0.406-0.625 0.406-1s-0.144-0.725-0.406-0.988l-2.6-2.575c-0.269-0.269-0.625-0.4-0.975-0.4-0.363 0-0.725 0.137-1 0.425l-8.819 8.975c-0.019 0.019-0.037 0.044-0.056 0.063z"></path>
</symbol>
<symbol id="icon-heart" viewBox="0 0 32 32">
<path d="M16 5.496l-1.434-1.474c-3.366-3.46-9.538-2.266-11.766 2.084-0.964 1.884-1.24 4.54 0.216 7.894h-2.156c-4.256-11.394 8.33-17.66 14.788-11.714 0.12 0.11 0.238 0.224 0.352 0.342 0.113-0.117 0.227-0.228 0.346-0.335l0.006-0.005c6.46-5.948 19.044 0.318 14.788 11.712h-2.156c1.456-3.354 1.18-6.010 0.216-7.894-2.228-4.35-8.4-5.546-11.766-2.086l-1.434 1.476zM4.424 20h2.63c2.132 2.366 5.046 4.916 8.946 7.59 3.898-2.674 6.814-5.224 8.946-7.59h2.63c-2.53 3.132-6.28 6.5-11.576 10-5.296-3.5-9.046-6.868-11.576-10zM20.928 6.628c-0.152-0.371-0.51-0.628-0.928-0.628-0.455 0-0.839 0.303-0.96 0.719l-0.002 0.007-3.196 11.186-2.914-7.284c-0.152-0.371-0.51-0.627-0.928-0.627-0.346 0-0.65 0.175-0.83 0.442l-0.002 0.004-3.704 5.554h-6.464c-0.552 0-1 0.448-1 1s0.448 1 1 1v0h7c0.346-0 0.65-0.176 0.83-0.442l0.002-0.004 2.946-4.418 3.294 8.236c0.152 0.371 0.51 0.628 0.928 0.628 0.455 0 0.839-0.303 0.96-0.719l0.002-0.007 3.196-11.186 2.914 7.284c0.152 0.371 0.51 0.628 0.928 0.628h7c0.552 0 1-0.448 1-1s-0.448-1-1-1v0h-6.324l-3.748-9.372z"></path>
</symbol>
<symbol id="icon-search" viewBox="0 0 26 28">
<path d="M18 13c0-3.859-3.141-7-7-7s-7 3.141-7 7 3.141 7 7 7 7-3.141 7-7zM26 26c0 1.094-0.906 2-2 2-0.531 0-1.047-0.219-1.406-0.594l-5.359-5.344c-1.828 1.266-4.016 1.937-6.234 1.937-6.078 0-11-4.922-11-11s4.922-11 11-11 11 4.922 11 11c0 2.219-0.672 4.406-1.937 6.234l5.359 5.359c0.359 0.359 0.578 0.875 0.578 1.406z"></path>
</symbol>
<symbol id="icon-paper-plane" viewBox="0 0 28 28">
<path d="M27.563 0.172c0.328 0.234 0.484 0.609 0.422 1l-4 24c-0.047 0.297-0.234 0.547-0.5 0.703-0.141 0.078-0.313 0.125-0.484 0.125-0.125 0-0.25-0.031-0.375-0.078l-7.078-2.891-3.781 4.609c-0.187 0.234-0.469 0.359-0.766 0.359-0.109 0-0.234-0.016-0.344-0.063-0.391-0.141-0.656-0.516-0.656-0.938v-5.453l13.5-16.547-16.703 14.453-6.172-2.531c-0.359-0.141-0.594-0.469-0.625-0.859-0.016-0.375 0.172-0.734 0.5-0.922l26-15c0.156-0.094 0.328-0.141 0.5-0.141 0.203 0 0.406 0.063 0.562 0.172z"></path>
</symbol>
<symbol id="icon-whatsapp" viewBox="0 0 24 28">
<path d="M15.391 15.219c0.266 0 2.812 1.328 2.922 1.516 0.031 0.078 0.031 0.172 0.031 0.234 0 0.391-0.125 0.828-0.266 1.188-0.359 0.875-1.813 1.437-2.703 1.437-0.75 0-2.297-0.656-2.969-0.969-2.234-1.016-3.625-2.75-4.969-4.734-0.594-0.875-1.125-1.953-1.109-3.031v-0.125c0.031-1.031 0.406-1.766 1.156-2.469 0.234-0.219 0.484-0.344 0.812-0.344 0.187 0 0.375 0.047 0.578 0.047 0.422 0 0.5 0.125 0.656 0.531 0.109 0.266 0.906 2.391 0.906 2.547 0 0.594-1.078 1.266-1.078 1.625 0 0.078 0.031 0.156 0.078 0.234 0.344 0.734 1 1.578 1.594 2.141 0.719 0.688 1.484 1.141 2.359 1.578 0.109 0.063 0.219 0.109 0.344 0.109 0.469 0 1.25-1.516 1.656-1.516zM12.219 23.5c5.406 0 9.812-4.406 9.812-9.812s-4.406-9.812-9.812-9.812-9.812 4.406-9.812 9.812c0 2.063 0.656 4.078 1.875 5.75l-1.234 3.641 3.781-1.203c1.594 1.047 3.484 1.625 5.391 1.625zM12.219 1.906c6.5 0 11.781 5.281 11.781 11.781s-5.281 11.781-11.781 11.781c-1.984 0-3.953-0.5-5.703-1.469l-6.516 2.094 2.125-6.328c-1.109-1.828-1.687-3.938-1.687-6.078 0-6.5 5.281-11.781 11.781-11.781z"></path>
</symbol>
<symbol id="icon-twitter" viewBox="0 0 26 28">
<path d="M25.312 6.375c-0.688 1-1.547 1.891-2.531 2.609 0.016 0.219 0.016 0.438 0.016 0.656 0 6.672-5.078 14.359-14.359 14.359-2.859 0-5.516-0.828-7.75-2.266 0.406 0.047 0.797 0.063 1.219 0.063 2.359 0 4.531-0.797 6.266-2.156-2.219-0.047-4.078-1.5-4.719-3.5 0.313 0.047 0.625 0.078 0.953 0.078 0.453 0 0.906-0.063 1.328-0.172-2.312-0.469-4.047-2.5-4.047-4.953v-0.063c0.672 0.375 1.453 0.609 2.281 0.641-1.359-0.906-2.25-2.453-2.25-4.203 0-0.938 0.25-1.797 0.688-2.547 2.484 3.062 6.219 5.063 10.406 5.281-0.078-0.375-0.125-0.766-0.125-1.156 0-2.781 2.25-5.047 5.047-5.047 1.453 0 2.766 0.609 3.687 1.594 1.141-0.219 2.234-0.641 3.203-1.219-0.375 1.172-1.172 2.156-2.219 2.781 1.016-0.109 2-0.391 2.906-0.781z"></path>
</symbol>
<symbol id="icon-facebook" viewBox="0 0 16 28">
<path d="M14.984 0.187v4.125h-2.453c-1.922 0-2.281 0.922-2.281 2.25v2.953h4.578l-0.609 4.625h-3.969v11.859h-4.781v-11.859h-3.984v-4.625h3.984v-3.406c0-3.953 2.422-6.109 5.953-6.109 1.687 0 3.141 0.125 3.563 0.187z"></path>
</symbol>
<symbol id="icon-instagram" viewBox="0 0 24 28">
<path d="M16 14c0-2.203-1.797-4-4-4s-4 1.797-4 4 1.797 4 4 4 4-1.797 4-4zM18.156 14c0 3.406-2.75 6.156-6.156 6.156s-6.156-2.75-6.156-6.156 2.75-6.156 6.156-6.156 6.156 2.75 6.156 6.156zM19.844 7.594c0 0.797-0.641 1.437-1.437 1.437s-1.437-0.641-1.437-1.437 0.641-1.437 1.437-1.437 1.437 0.641 1.437 1.437zM12 4.156c-1.75 0-5.5-0.141-7.078 0.484-0.547 0.219-0.953 0.484-1.375 0.906s-0.688 0.828-0.906 1.375c-0.625 1.578-0.484 5.328-0.484 7.078s-0.141 5.5 0.484 7.078c0.219 0.547 0.484 0.953 0.906 1.375s0.828 0.688 1.375 0.906c1.578 0.625 5.328 0.484 7.078 0.484s5.5 0.141 7.078-0.484c0.547-0.219 0.953-0.484 1.375-0.906s0.688-0.828 0.906-1.375c0.625-1.578 0.484-5.328 0.484-7.078s0.141-5.5-0.484-7.078c-0.219-0.547-0.484-0.953-0.906-1.375s-0.828-0.688-1.375-0.906c-1.578-0.625-5.328-0.484-7.078-0.484zM24 14c0 1.656 0.016 3.297-0.078 4.953-0.094 1.922-0.531 3.625-1.937 5.031s-3.109 1.844-5.031 1.937c-1.656 0.094-3.297 0.078-4.953 0.078s-3.297 0.016-4.953-0.078c-1.922-0.094-3.625-0.531-5.031-1.937s-1.844-3.109-1.937-5.031c-0.094-1.656-0.078-3.297-0.078-4.953s-0.016-3.297 0.078-4.953c0.094-1.922 0.531-3.625 1.937-5.031s3.109-1.844 5.031-1.937c1.656-0.094 3.297-0.078 4.953-0.078s3.297-0.016 4.953 0.078c1.922 0.094 3.625 0.531 5.031 1.937s1.844 3.109 1.937 5.031c0.094 1.656 0.078 3.297 0.078 4.953z"></path>
</symbol>
<symbol id="icon-play" viewBox="0 0 22 28">
<path d="M21.625 14.484l-20.75 11.531c-0.484 0.266-0.875 0.031-0.875-0.516v-23c0-0.547 0.391-0.781 0.875-0.516l20.75 11.531c0.484 0.266 0.484 0.703 0 0.969z"></path>
</symbol>
</defs>
</svg>
